STARTFONT 2.1
FONT -kiedtl-kikon-medium-r-normal--18-180-75-75-c-90-iso10646-1
SIZE 18 75 75
FONTBOUNDINGBOX 9 18 0 -2
STARTPROPERTIES 19
FONTNAME_REGISTRY ""
FOUNDRY "kiedtl"
FAMILY_NAME "kikon"
WEIGHT_NAME "medium"
SLANT "r"
SETWIDTH_NAME "normal"
ADD_STYLE_NAME ""
PIXEL_SIZE 18
POINT_SIZE 180
RESOLUTION_X 75
RESOLUTION_Y 75
SPACING "c"
AVERAGE_WIDTH 90
CHARSET_REGISTRY "ISO10646"
CHARSET_ENCODING "1"
DESTINATION 1
FONT_ASCENT 16
FONT_DESCENT 2
_GBDFED_INFO "Edited with gbdfed 1.6."
ENDPROPERTIES
CHARS 111
STARTCHAR U+005
ENCODING 5
SWIDTH 480 0
DWIDTH 9 0
BBX 9 18 0 -2
BITMAP
0000
0000
0000
0000
0000
0000
0000
0000
0000
0000
0000
0000
0000
0000
0000
0000
0000
000E
ENDCHAR
STARTCHAR U+0020
ENCODING 32
SWIDTH 480 0
DWIDTH 9 0
BBX 9 18 0 -2
BITMAP
0000
0000
0000
0000
0000
0000
0000
0000
0000
0000
0000
0000
0000
0000
0000
0000
0000
000E
ENDCHAR
STARTCHAR U+0021
ENCODING 33
SWIDTH 480 0
DWIDTH 9 0
BBX 9 18 0 -2
BITMAP
0000
0000
0000
0001
1801
1801
1801
1801
1801
1801
1801
1800
0001
1801
1800
0000
0000
000E
ENDCHAR
STARTCHAR U+0022
ENCODING 34
SWIDTH 480 0
DWIDTH 9 0
BBX 9 18 0 -2
BITMAP
0000
0000
0000
0000
2400
2400
2400
2400
0000
0000
0000
0000
0000
0000
0000
0000
0000
0000
ENDCHAR
STARTCHAR U+0023
ENCODING 35
SWIDTH 480 0
DWIDTH 9 0
BBX 9 18 0 -2
BITMAP
0000
0000
0000
0003
3603
3603
3607
7F03
3603
3603
3607
7F03
3603
3603
3600
0000
0000
000E
ENDCHAR
STARTCHAR U+0024
ENCODING 36
SWIDTH 480 0
DWIDTH 9 0
BBX 9 18 0 -2
BITMAP
0000
0000
0800
0803
3E06
6306
6006
6006
6003
3E00
0300
0300
0306
6303
3E00
0800
0800
000E
ENDCHAR
STARTCHAR  U+0025
ENCODING 37
SWIDTH 480 0
DWIDTH 9 0
BBX 9 18 0 -2
BITMAP
0000
0000
0000
0000
0000
0000
6100
6300
0600
0C00
1800
3000
6300
4300
0000
0000
0000
0000
ENDCHAR
STARTCHAR U+0026
ENCODING 38
SWIDTH 480 0
DWIDTH 9 0
BBX 9 18 0 -2
BITMAP
0000
0000
0000
0003
3C06
6606
6606
6003
3906
6206
6606
6606
6606
6603
3C00
0000
0000
000E
ENDCHAR
STARTCHAR U+0027
ENCODING 39
SWIDTH 480 0
DWIDTH 9 0
BBX 9 18 0 -2
BITMAP
0000
0000
0000
0000
1000
1000
1000
1000
0000
0000
0000
0000
0000
0000
0000
0000
0000
0000
ENDCHAR
STARTCHAR U+0028
ENCODING 40
SWIDTH 480 0
DWIDTH 9 0
BBX 9 18 0 -2
BITMAP
0000
0000
0700
0800
1000
3000
3000
3000
3000
3000
3000
3000
3000
3000
1000
0800
0700
0000
ENDCHAR
STARTCHAR U+0029
ENCODING 41
SWIDTH 480 0
DWIDTH 9 0
BBX 9 18 0 -2
BITMAP
0000
0000
7000
0800
0400
0600
0600
0600
0600
0600
0600
0600
0600
0600
0400
0800
7000
0000
ENDCHAR
STARTCHAR U+002a
ENCODING 42
SWIDTH 480 0
DWIDTH 9 0
BBX 9 18 0 -2
BITMAP
0000
0000
0000
0000
0000
0800
4900
2A00
1C00
2A00
4900
0800
0000
0000
0000
0000
0000
0000
ENDCHAR
STARTCHAR U+002b
ENCODING 43
SWIDTH 480 0
DWIDTH 9 0
BBX 9 18 0 -2
BITMAP
0000
0000
0000
0000
0000
0800
0800
0807
7F00
0800
0800
0800
0000
0000
0000
0000
0000
000E
ENDCHAR
STARTCHAR U+002c
ENCODING 44
SWIDTH 480 0
DWIDTH 9 0
BBX 9 18 0 -2
BITMAP
0000
0000
0000
0000
0000
0000
0000
0000
0000
0000
0000
0000
0001
1801
1800
0801
1000
000E
ENDCHAR
STARTCHAR U+002d
ENCODING 45
SWIDTH 480 0
DWIDTH 9 0
BBX 9 18 0 -2
BITMAP
0000
0000
0000
0000
0000
0000
0000
0007
7F00
0000
0000
0000
0000
0000
0000
0000
0000
000E
ENDCHAR
STARTCHAR U+002e
ENCODING 46
SWIDTH 480 0
DWIDTH 9 0
BBX 9 18 0 -2
BITMAP
0000
0000
0000
0000
0000
0000
0000
0000
0000
0000
0000
0000
0001
1801
1800
0000
0000
000E
ENDCHAR
STARTCHAR U+002f
ENCODING 47
SWIDTH 480 0
DWIDTH 9 0
BBX 9 18 0 -2
BITMAP
0000
0000
0000
0100
0100
0200
0200
0400
0400
0800
0801
1001
1002
2002
2000
0000
0000
000E
ENDCHAR
STARTCHAR U+0030
ENCODING 48
SWIDTH 480 0
DWIDTH 9 0
BBX 9 18 0 -2
BITMAP
0000
0000
0000
0003
3E06
6306
6306
6306
6B06
6B06
6B06
6306
6306
6303
3E00
0000
0000
000E
ENDCHAR
STARTCHAR U+0031
ENCODING 49
SWIDTH 480 0
DWIDTH 9 0
BBX 9 18 0 -2
BITMAP
0000
0000
0000
0001
1803
3801
1801
1801
1801
1801
1801
1801
1801
1801
1800
0000
0000
000E
ENDCHAR
STARTCHAR U+0032
ENCODING 50
SWIDTH 480 0
DWIDTH 9 0
BBX 9 18 0 -2
BITMAP
0000
0000
0000
0003
3E04
4300
0300
0300
0300
0600
0C01
1803
3006
6007
7F00
0000
0000
000E
ENDCHAR
STARTCHAR U+0033
ENCODING 51
SWIDTH 480 0
DWIDTH 9 0
BBX 9 18 0 -2
BITMAP
0000
0000
0000
0007
7F00
0600
0C01
1803
3E00
0300
0300
0300
0304
4203
3C00
0000
0000
000E
ENDCHAR
STARTCHAR U+0034
ENCODING 52
SWIDTH 480 0
DWIDTH 9 0
BBX 9 18 0 -2
BITMAP
0000
0000
0000
0000
0600
0E01
1602
2604
4607
7F00
0600
0600
0600
0600
0600
0000
0000
000E
ENDCHAR
STARTCHAR U+0035
ENCODING 53
SWIDTH 480 0
DWIDTH 9 0
BBX 9 18 0 -2
BITMAP
0000
0000
0000
0007
7F06
6006
6007
7E00
0300
0300
0300
0300
0304
4203
3C00
0000
0000
000E
ENDCHAR
STARTCHAR U+0036
ENCODING 54
SWIDTH 480 0
DWIDTH 9 0
BBX 9 18 0 -2
BITMAP
0000
0000
0000
0001
1E03
3006
6007
7E06
6306
6306
6306
6306
6306
6303
3E00
0000
0000
000E
ENDCHAR
STARTCHAR U+0037
ENCODING 55
SWIDTH 480 0
DWIDTH 9 0
BBX 9 18 0 -2
BITMAP
0000
0000
0000
0007
7E00
0600
0600
0600
0C01
1801
1801
1801
1801
1801
1800
0000
0000
000E
ENDCHAR
STARTCHAR U+0038
ENCODING 56
SWIDTH 480 0
DWIDTH 9 0
BBX 9 18 0 -2
BITMAP
0000
0000
0000
0003
3C06
6606
6606
6606
6603
3C06
6606
6606
6606
6603
3C00
0000
0000
000E
ENDCHAR
STARTCHAR U+0039
ENCODING 57
SWIDTH 480 0
DWIDTH 9 0
BBX 9 18 0 -2
BITMAP
0000
0000
0000
0003
3E06
6306
6306
6306
6306
6303
3F00
0300
0600
0C03
3800
0000
0000
000E
ENDCHAR
STARTCHAR U+003a
ENCODING 58
SWIDTH 480 0
DWIDTH 9 0
BBX 9 18 0 -2
BITMAP
0000
0000
0000
0000
0000
0000
0000
0C00
0C00
0000
0000
0000
0000
0C00
0C00
0000
0000
000E
ENDCHAR
STARTCHAR U+003b
ENCODING 59
SWIDTH 480 0
DWIDTH 9 0
BBX 9 18 0 -2
BITMAP
0000
0000
0000
0000
0000
0000
0000
0C00
0C00
0C00
0000
0000
0000
0C00
0C00
0400
0800
000E
ENDCHAR
STARTCHAR U+003c
ENCODING 60
SWIDTH 480 0
DWIDTH 9 0
BBX 9 18 0 -2
BITMAP
0000
0000
0000
0000
0600
0C01
1803
3006
6003
3001
1800
0C00
0600
0000
0000
0000
0000
000E
ENDCHAR
STARTCHAR U+003d
ENCODING 61
SWIDTH 480 0
DWIDTH 9 0
BBX 9 18 0 -2
BITMAP
0000
0000
0000
0000
0000
0000
0007
7F00
0000
0000
0007
7F00
0000
0000
0000
0000
0000
000E
ENDCHAR
STARTCHAR U+003e
ENCODING 62
SWIDTH 480 0
DWIDTH 9 0
BBX 9 18 0 -2
BITMAP
0000
0000
0000
0003
3001
1800
0C00
0600
0300
0600
0C01
1803
3000
0000
0000
0000
0000
000E
ENDCHAR
STARTCHAR U+003f
ENCODING 63
SWIDTH 480 0
DWIDTH 9 0
BBX 9 18 0 -2
BITMAP
0000
0000
0000
0003
3E04
4300
0300
0300
0600
0C01
1801
1800
0001
1801
1800
0000
0000
000E
ENDCHAR
STARTCHAR U+0040
ENCODING 64
SWIDTH 480 0
DWIDTH 9 0
BBX 9 18 0 -2
BITMAP
0000
0000
0000
0003
3E04
4104
4104
4F04
4904
4904
4904
4F04
4004
4103
3E00
0000
0000
000E
ENDCHAR
STARTCHAR U+0041
ENCODING 65
SWIDTH 480 0
DWIDTH 9 0
BBX 9 18 0 -2
BITMAP
0000
0000
0000
0003
3E06
6306
6306
6306
6307
7F06
6306
6306
6306
6306
6300
0000
0000
000E
ENDCHAR
STARTCHAR U+0042
ENCODING 66
SWIDTH 480 0
DWIDTH 9 0
BBX 9 18 0 -2
BITMAP
0000
0000
0000
0007
7E06
6306
6306
6306
6307
7E06
6306
6306
6306
6307
7E00
0000
0000
000E
ENDCHAR
STARTCHAR U+0043
ENCODING 67
SWIDTH 480 0
DWIDTH 9 0
BBX 9 18 0 -2
BITMAP
0000
0000
0000
0003
3E06
6106
6006
6006
6006
6006
6006
6006
6006
6103
3E00
0000
0000
000E
ENDCHAR
STARTCHAR U+0044
ENCODING 68
SWIDTH 480 0
DWIDTH 9 0
BBX 9 18 0 -2
BITMAP
0000
0000
0000
0007
7E06
6306
6306
6306
6306
6306
6306
6306
6306
6307
7E00
0000
0000
000E
ENDCHAR
STARTCHAR U+0045
ENCODING 69
SWIDTH 480 0
DWIDTH 9 0
BBX 9 18 0 -2
BITMAP
0000
0000
0000
0007
7F06
6006
6006
6006
6007
7C06
6006
6006
6006
6007
7F00
0000
0000
000E
ENDCHAR
STARTCHAR U+0046
ENCODING 70
SWIDTH 480 0
DWIDTH 9 0
BBX 9 18 0 -2
BITMAP
0000
0000
0000
0007
7F06
6006
6006
6006
6007
7C06
6006
6006
6006
6006
6000
0000
0000
000E
ENDCHAR
STARTCHAR U+0047
ENCODING 71
SWIDTH 480 0
DWIDTH 9 0
BBX 9 18 0 -2
BITMAP
0000
0000
0000
0003
3E06
6306
6006
6006
6006
6706
6306
6306
6306
6303
3E00
0000
0000
000E
ENDCHAR
STARTCHAR U+0048
ENCODING 72
SWIDTH 480 0
DWIDTH 9 0
BBX 9 18 0 -2
BITMAP
0000
0000
0000
0006
6306
6306
6306
6306
6307
7F06
6306
6306
6306
6306
6300
0000
0000
000E
ENDCHAR
STARTCHAR U+0049
ENCODING 73
SWIDTH 480 0
DWIDTH 9 0
BBX 9 18 0 -2
BITMAP
0000
0000
0000
0007
7E01
1801
1801
1801
1801
1801
1801
1801
1801
1807
7E00
0000
0000
000E
ENDCHAR
STARTCHAR U+004a
ENCODING 74
SWIDTH 480 0
DWIDTH 9 0
BBX 9 18 0 -2
BITMAP
0000
0000
0000
0000
0300
0300
0300
0300
0300
0306
6306
6306
6306
6303
3E00
0000
0000
000E
ENDCHAR
STARTCHAR U+004b
ENCODING 75
SWIDTH 480 0
DWIDTH 9 0
BBX 9 18 0 -2
BITMAP
0000
0000
0000
0006
6106
6306
6606
6C07
7807
7007
7806
6C06
6606
6306
6100
0000
0000
000E
ENDCHAR
STARTCHAR U+004c
ENCODING 76
SWIDTH 480 0
DWIDTH 9 0
BBX 9 18 0 -2
BITMAP
0000
0000
0000
0006
6006
6006
6006
6006
6006
6006
6006
6006
6006
6007
7F00
0000
0000
000E
ENDCHAR
STARTCHAR U+004d
ENCODING 77
SWIDTH 480 0
DWIDTH 9 0
BBX 9 18 0 -2
BITMAP
0000
0000
0000
000C
C30C
C30E
E70F
FF0D
DB0D
DB0C
C30C
C30C
C30C
C30C
C300
0000
0000
000E
ENDCHAR
STARTCHAR U+004e
ENCODING 78
SWIDTH 480 0
DWIDTH 9 0
BBX 9 18 0 -2
BITMAP
0000
0000
0000
0004
4104
4106
6107
7107
7905
5D04
4F04
4704
4304
4104
4100
0000
0000
000E
ENDCHAR
STARTCHAR U+004f
ENCODING 79
SWIDTH 480 0
DWIDTH 9 0
BBX 9 18 0 -2
BITMAP
0000
0000
0000
0003
3E06
6306
6306
6306
6306
6306
6306
6306
6306
6303
3E00
0000
0000
000E
ENDCHAR
STARTCHAR U+0050
ENCODING 80
SWIDTH 480 0
DWIDTH 9 0
BBX 9 18 0 -2
BITMAP
0000
0000
0000
0007
7E06
6306
6306
6306
6307
7E06
6006
6006
6006
6006
6000
0000
0000
000E
ENDCHAR
STARTCHAR U+0051
ENCODING 81
SWIDTH 480 0
DWIDTH 9 0
BBX 9 18 0 -2
BITMAP
0000
0000
0000
0003
3E06
6306
6306
6306
6306
6306
6306
6306
6306
6303
3E00
0200
0300
000E
ENDCHAR
STARTCHAR U+0052
ENCODING 82
SWIDTH 480 0
DWIDTH 9 0
BBX 9 18 0 -2
BITMAP
0000
0000
0000
0000
7E00
6300
6300
6300
6300
6300
7E00
6300
6300
6300
6300
0000
0000
0000
ENDCHAR
STARTCHAR U+0053
ENCODING 83
SWIDTH 480 0
DWIDTH 9 0
BBX 9 18 0 -2
BITMAP
0000
0000
0000
0003
3E06
6306
6006
6006
6003
3E00
0300
0300
0306
6303
3E00
0000
0000
000E
ENDCHAR
STARTCHAR U+0054
ENCODING 84
SWIDTH 480 0
DWIDTH 9 0
BBX 9 18 0 -2
BITMAP
0000
0000
0000
0000
7F80
0C00
0C00
0C00
0C00
0C00
0C00
0C00
0C00
0C00
0C00
0000
0000
0000
ENDCHAR
STARTCHAR U+0055
ENCODING 85
SWIDTH 480 0
DWIDTH 9 0
BBX 9 18 0 -2
BITMAP
0000
0000
0000
0006
6306
6306
6306
6306
6306
6306
6306
6306
6306
6303
3E00
0000
0000
000E
ENDCHAR
STARTCHAR U+0056
ENCODING 86
SWIDTH 480 0
DWIDTH 9 0
BBX 9 18 0 -2
BITMAP
0000
0000
0000
0006
6306
6306
6306
6306
6306
6306
6306
6306
6306
6607
7C00
0000
0000
000E
ENDCHAR
STARTCHAR U+0057
ENCODING 87
SWIDTH 480 0
DWIDTH 9 0
BBX 9 18 0 -2
BITMAP
0000
0000
0000
000D
DB0D
DB0D
DB0D
DB0D
DB0D
DB0D
DB0D
DB0D
DB0D
DE0F
FC00
0000
0000
000E
ENDCHAR
STARTCHAR U+0058
ENCODING 88
SWIDTH 480 0
DWIDTH 9 0
BBX 9 18 0 -2
BITMAP
0000
0000
0000
0006
6306
6306
6306
6306
6303
3E06
6306
6306
6306
6306
6300
0000
0000
000E
ENDCHAR
STARTCHAR U+0059
ENCODING 89
SWIDTH 480 0
DWIDTH 9 0
BBX 9 18 0 -2
BITMAP
0000
0000
0000
0006
6606
6606
6606
6606
6603
3C01
1801
1801
1801
1801
1800
0000
0000
000E
ENDCHAR
STARTCHAR U+005a
ENCODING 90
SWIDTH 480 0
DWIDTH 9 0
BBX 9 18 0 -2
BITMAP
0000
0000
0000
0007
7E00
0600
0600
0E01
1C03
3807
7006
6006
6006
6007
7E00
0000
0000
000E
ENDCHAR
STARTCHAR U+005b
ENCODING 91
SWIDTH 480 0
DWIDTH 9 0
BBX 9 18 0 -2
BITMAP
0000
0000
3E00
3000
3000
3000
3000
3000
3000
3000
3000
3000
3000
3000
3000
3000
3E00
0000
ENDCHAR
STARTCHAR U+005c
ENCODING 92
SWIDTH 480 0
DWIDTH 9 0
BBX 9 18 0 -2
BITMAP
0000
0000
0004
4004
4002
2002
2001
1001
1000
0800
0800
0400
0400
0200
0200
0000
0000
000E
ENDCHAR
STARTCHAR U+005d
ENCODING 93
SWIDTH 480 0
DWIDTH 9 0
BBX 9 18 0 -2
BITMAP
0000
0000
3E00
0600
0600
0600
0600
0600
0600
0600
0600
0600
0600
0600
0600
0600
3E00
0000
ENDCHAR
STARTCHAR U+005e
ENCODING 94
SWIDTH 480 0
DWIDTH 9 0
BBX 9 18 0 -2
BITMAP
0000
0000
0000
0800
1C00
3600
6300
4100
0000
0000
0000
0000
0000
0000
0000
0000
0000
0000
ENDCHAR
STARTCHAR U+005f
ENCODING 95
SWIDTH 480 0
DWIDTH 9 0
BBX 9 18 0 -2
BITMAP
0000
0000
0000
0000
0000
0000
0000
0000
0000
0000
0000
0000
0000
0000
FF80
0000
0000
0000
ENDCHAR
STARTCHAR U+0060
ENCODING 96
SWIDTH 480 0
DWIDTH 9 0
BBX 9 18 0 -2
BITMAP
0000
0000
0000
0000
2000
3000
1800
0C00
0600
0200
0000
0000
0000
0000
0000
0000
0000
0000
ENDCHAR
STARTCHAR U+0061
ENCODING 97
SWIDTH 480 0
DWIDTH 9 0
BBX 9 18 0 -2
BITMAP
0000
0000
0000
0000
0000
0000
0000
3E00
4300
3F00
6300
6300
6300
6300
3F00
0000
0000
0000
ENDCHAR
STARTCHAR U+0062
ENCODING 98
SWIDTH 480 0
DWIDTH 9 0
BBX 9 18 0 -2
BITMAP
0000
0000
0000
0000
0000
6000
6000
7E00
6300
6300
6300
6300
6300
6300
7E00
0000
0000
0000
ENDCHAR
STARTCHAR U+0063
ENCODING 99
SWIDTH 480 0
DWIDTH 9 0
BBX 9 18 0 -2
BITMAP
0000
0000
0000
0000
0000
0000
0003
3E06
6106
6006
6006
6006
6006
6103
3E00
0000
0000
000E
ENDCHAR
STARTCHAR U+0064
ENCODING 100
SWIDTH 480 0
DWIDTH 9 0
BBX 9 18 0 -2
BITMAP
0000
0000
0000
0000
0000
0300
0300
3F00
6300
6300
6300
6300
6300
6300
3F00
0000
0000
0000
ENDCHAR
STARTCHAR U+0065
ENCODING 101
SWIDTH 480 0
DWIDTH 9 0
BBX 9 18 0 -2
BITMAP
0000
0000
0000
0000
0000
0000
0003
3E06
6306
6306
6307
7F06
6006
6103
3E00
0000
0000
000E
ENDCHAR
STARTCHAR U+0066
ENCODING 102
SWIDTH 480 0
DWIDTH 9 0
BBX 9 18 0 -2
BITMAP
0000
0000
0000
0000
0000
3E00
6100
6100
6000
6000
7800
6000
6000
6000
6000
0000
0000
0000
ENDCHAR
STARTCHAR U+0067
ENCODING 103
SWIDTH 480 0
DWIDTH 9 0
BBX 9 18 0 -2
BITMAP
0000
0000
0000
0000
0000
0000
0003
3E06
6306
6306
6306
6306
6306
6303
3F00
0304
4303
3E0E
ENDCHAR
STARTCHAR U+0068
ENCODING 104
SWIDTH 480 0
DWIDTH 9 0
BBX 9 18 0 -2
BITMAP
0000
0000
0000
0000
0000
6000
6000
7E00
6300
6300
6300
6300
6300
6300
6300
0000
0000
0000
ENDCHAR
STARTCHAR U+0069
ENCODING 105
SWIDTH 480 0
DWIDTH 9 0
BBX 9 18 0 -2
BITMAP
0000
0000
0000
0000
0000
0C00
0000
1C00
0C00
0C00
0C00
0C00
0C00
0C00
0700
0000
0000
0000
ENDCHAR
STARTCHAR U+006a
ENCODING 106
SWIDTH 480 0
DWIDTH 9 0
BBX 9 18 0 -2
BITMAP
0000
0000
0000
0000
0000
0600
0000
0E00
0600
0600
0600
0600
0600
0600
0604
4603
3C00
000E
ENDCHAR
STARTCHAR U+006b
ENCODING 107
SWIDTH 480 0
DWIDTH 9 0
BBX 9 18 0 -2
BITMAP
0000
0000
0000
0000
0006
6006
6006
6606
6C07
7807
7007
7806
6C06
6606
6300
0000
0000
000E
ENDCHAR
STARTCHAR U+006c
ENCODING 108
SWIDTH 480 0
DWIDTH 9 0
BBX 9 18 0 -2
BITMAP
0000
0000
0000
0000
0000
3800
1800
1800
1800
1800
1800
1800
1800
1800
0E00
0000
0000
0000
ENDCHAR
STARTCHAR U+006d
ENCODING 109
SWIDTH 480 0
DWIDTH 9 0
BBX 9 18 0 -2
BITMAP
0000
0000
0000
0000
0000
0000
000F
FE0D
DB0D
DB0D
DB0D
DB0D
DB0D
DB0D
DB00
0000
0000
000E
ENDCHAR
STARTCHAR U+006e
ENCODING 110
SWIDTH 480 0
DWIDTH 9 0
BBX 9 18 0 -2
BITMAP
0000
0000
0000
0000
0000
0000
0007
7E06
6306
6306
6306
6306
6306
6306
6300
0000
0000
000E
ENDCHAR
STARTCHAR U+006f
ENCODING 111
SWIDTH 480 0
DWIDTH 9 0
BBX 9 18 0 -2
BITMAP
0000
0000
0000
0000
0000
0000
0003
3E06
6306
6306
6306
6306
6306
6303
3E00
0000
0000
000E
ENDCHAR
STARTCHAR U+0070
ENCODING 112
SWIDTH 480 0
DWIDTH 9 0
BBX 9 18 0 -2
BITMAP
0000
0000
0000
0000
0000
0000
0007
7E06
6306
6306
6306
6306
6306
6307
7E06
6006
6006
600E
ENDCHAR
STARTCHAR U+0071
ENCODING 113
SWIDTH 480 0
DWIDTH 9 0
BBX 9 18 0 -2
BITMAP
0000
0000
0000
0000
0000
0000
0003
3F06
6306
6306
6306
6306
6306
6303
3F00
0300
0300
030E
ENDCHAR
STARTCHAR U+0072
ENCODING 114
SWIDTH 480 0
DWIDTH 9 0
BBX 9 18 0 -2
BITMAP
0000
0000
0000
0000
0000
0000
0006
6F07
7006
6006
6006
6006
6006
6006
6000
0000
0000
000E
ENDCHAR
STARTCHAR U+0073
ENCODING 115
SWIDTH 480 0
DWIDTH 9 0
BBX 9 18 0 -2
BITMAP
0000
0000
0000
0000
0000
0000
0003
3E06
6306
6003
3E00
0300
0306
6303
3E00
0000
0000
000E
ENDCHAR
STARTCHAR U+0074
ENCODING 116
SWIDTH 480 0
DWIDTH 9 0
BBX 9 18 0 -2
BITMAP
0000
0000
0000
0000
0000
0000
0000
7F00
1800
1800
1800
1800
1800
1800
0E00
0000
0000
0000
ENDCHAR
STARTCHAR U+0075
ENCODING 117
SWIDTH 480 0
DWIDTH 9 0
BBX 9 18 0 -2
BITMAP
0000
0000
0000
0000
0000
0000
0006
6306
6306
6306
6306
6306
6306
6303
3F00
0000
0000
000E
ENDCHAR
STARTCHAR U+0076
ENCODING 118
SWIDTH 480 0
DWIDTH 9 0
BBX 9 18 0 -2
BITMAP
0000
0000
0000
0000
0000
0000
0006
6306
6306
6306
6306
6306
6306
6607
7C00
0000
0000
000E
ENDCHAR
STARTCHAR U+0077
ENCODING 119
SWIDTH 480 0
DWIDTH 9 0
BBX 9 18 0 -2
BITMAP
0000
0000
0000
0000
0000
0000
000D
DB0D
DB0D
DB0D
DB0D
DB0D
DB0D
DE0F
FC00
0000
0000
000E
ENDCHAR
STARTCHAR U+0078
ENCODING 120
SWIDTH 480 0
DWIDTH 9 0
BBX 9 18 0 -2
BITMAP
0000
0000
0000
0000
0000
0000
0006
6306
6306
6303
3E06
6306
6306
6306
6300
0000
0000
000E
ENDCHAR
STARTCHAR U+0079
ENCODING 121
SWIDTH 480 0
DWIDTH 9 0
BBX 9 18 0 -2
BITMAP
0000
0000
0000
0000
0000
0000
0006
6306
6306
6306
6306
6306
6306
6303
3F00
0304
4303
3E0E
ENDCHAR
STARTCHAR U+007a
ENCODING 122
SWIDTH 480 0
DWIDTH 9 0
BBX 9 18 0 -2
BITMAP
0000
0000
0000
0000
0000
0000
0007
7E00
0600
0C01
1803
3006
6006
6007
7E00
0000
0000
000E
ENDCHAR
STARTCHAR U+007b
ENCODING 123
SWIDTH 480 0
DWIDTH 9 0
BBX 9 18 0 -2
BITMAP
0000
0000
0E00
1800
1800
1800
1800
1800
1800
7000
1800
1800
1800
1800
1800
1800
0E00
0000
ENDCHAR
STARTCHAR U+007c
ENCODING 124
SWIDTH 480 0
DWIDTH 9 0
BBX 9 18 0 -2
BITMAP
0000
0000
0001
1801
1801
1801
1801
1801
1801
1801
1801
1801
1801
1801
1801
1800
0000
000E
ENDCHAR
STARTCHAR U+007d
ENCODING 125
SWIDTH 480 0
DWIDTH 9 0
BBX 9 18 0 -2
BITMAP
0000
0000
3800
0C00
0C00
0C00
0C00
0C00
0C00
0700
0C00
0C00
0C00
0C00
0C00
0C00
3800
0000
ENDCHAR
STARTCHAR U+007e
ENCODING 126
SWIDTH 480 0
DWIDTH 9 0
BBX 9 18 0 -2
BITMAP
0000
0000
0000
0000
0000
0000
0000
3880
7F80
4700
0000
0000
0000
0000
0000
0000
0000
0000
ENDCHAR
STARTCHAR U+0097
ENCODING 151
SWIDTH 480 0
DWIDTH 9 0
BBX 9 18 0 -2
BITMAP
0000
0000
0000
0000
0000
0000
0000
0000
0000
0000
0000
0000
0000
0000
0000
0000
0000
000E
ENDCHAR
STARTCHAR U+00a1
ENCODING 161
SWIDTH 480 0
DWIDTH 9 0
BBX 9 18 0 -2
BITMAP
0000
0000
0000
0000
0000
0001
1801
1800
0001
1801
1801
1801
1801
1801
1801
1801
1801
180E
ENDCHAR
STARTCHAR U+00a3
ENCODING 163
SWIDTH 480 0
DWIDTH 9 0
BBX 9 18 0 -2
BITMAP
0000
0000
0000
0001
1E03
3103
3003
3003
3007
7803
3003
3003
3003
3107
7E00
0000
0000
000E
ENDCHAR
STARTCHAR U+00a4
ENCODING 164
SWIDTH 480 0
DWIDTH 9 0
BBX 9 18 0 -2
BITMAP
0000
0000
0000
0000
0000
0000
0005
5D02
2204
4104
4104
4102
2205
5D00
0000
0000
0000
000E
ENDCHAR
STARTCHAR U+00a5
ENCODING 165
SWIDTH 480 0
DWIDTH 9 0
BBX 9 18 0 -2
BITMAP
0000
0000
0000
0006
6606
6606
660E
E703
3C0F
FF01
1801
1801
1801
1801
1800
0000
0000
000E
ENDCHAR
STARTCHAR U+00a6
ENCODING 166
SWIDTH 480 0
DWIDTH 9 0
BBX 9 18 0 -2
BITMAP
0000
0000
0000
0001
1801
1801
1801
1801
1800
0001
1801
1801
1801
1801
1800
0000
0000
000E
ENDCHAR
STARTCHAR U+00aa
ENCODING 170
SWIDTH 480 0
DWIDTH 9 0
BBX 9 18 0 -2
BITMAP
0000
0000
0000
0000
0000
0003
3E02
2202
2202
2202
2202
2203
3E00
0000
0000
0000
0000
000E
ENDCHAR
STARTCHAR U+00b7
ENCODING 183
SWIDTH 480 0
DWIDTH 9 0
BBX 9 18 0 -2
BITMAP
0000
0000
0000
0000
0000
0000
0000
0001
1801
1800
0000
0000
0000
0000
0000
0000
0000
000E
ENDCHAR
STARTCHAR U+00c0
ENCODING 192
SWIDTH 480 0
DWIDTH 9 0
BBX 9 18 0 -2
BITMAP
0003
3000
0800
0003
3E06
6306
6306
6306
6307
7F06
6306
6306
6306
6306
6300
0000
0000
000E
ENDCHAR
STARTCHAR U+00de
ENCODING 222
SWIDTH 480 0
DWIDTH 9 0
BBX 9 18 0 -2
BITMAP
0000
0000
0000
0006
6006
6007
7E06
6306
6306
6306
6307
7E06
6006
6006
6000
0000
0000
000E
ENDCHAR
STARTCHAR U+00e8
ENCODING 232
SWIDTH 480 0
DWIDTH 9 0
BBX 9 18 0 -2
BITMAP
0000
0000
0003
3003
3800
0800
0003
3E06
6306
6306
6307
7F06
6006
6103
3E00
0000
0000
000E
ENDCHAR
STARTCHAR U+00eb
ENCODING 235
SWIDTH 480 0
DWIDTH 9 0
BBX 9 18 0 -2
BITMAP
0000
0000
0000
0000
3600
3600
0000
3E00
6300
6300
6300
7F00
6000
6100
3E00
0000
0000
0000
ENDCHAR
STARTCHAR U+00FE
ENCODING 254
SWIDTH 480 0
DWIDTH 9 0
BBX 9 18 0 -2
BITMAP
0000
0000
0000
0006
6006
6006
6007
7E06
6306
6306
6306
6306
6306
6307
7E06
6006
6006
600E
ENDCHAR
STARTCHAR U+e005
ENCODING 57349
SWIDTH 480 0
DWIDTH 9 0
BBX 9 18 0 -2
BITMAP
0000
0000
0000
0000
0600
0C00
0807
760F
FF0F
FF0F
FC0F
FC0F
FF07
7F03
3600
0000
0000
000E
ENDCHAR
STARTCHAR U+e006
ENCODING 57350
SWIDTH 480 0
DWIDTH 9 0
BBX 9 18 0 -2
BITMAP
0000
0000
0000
0000
0000
0000
0000
0000
0000
0000
0000
0000
0000
0000
0000
0000
0000
000E
ENDCHAR
ENDFONT
